<svg width="32" height="36" viewBox="0 0 32 36" fill="none" xmlns="http://www.w3.org/2000/svg" xmlns:xlink="http://www.w3.org/1999/xlink">
<path d="M24.889,9.889L23.389,9.889L24.889,9.889ZM1.778,31.222L0.278,31.222L1.778,31.222ZM30.222,31.222L31.722,31.222L30.222,31.222ZM23.389,9.889C23.389,11.35 22.956,12.779 22.144,13.994L24.638,15.661C25.78,13.952 26.389,11.944 26.389,9.889L23.389,9.889ZM22.144,13.994C21.332,15.209 20.178,16.156 18.828,16.715L19.976,19.487C21.874,18.701 23.497,17.369 24.638,15.661L22.144,13.994ZM18.828,16.715C17.478,17.275 15.992,17.421 14.559,17.136L13.973,20.078C15.989,20.479 18.077,20.273 19.976,19.487L18.828,16.715ZM14.559,17.136C13.125,16.851 11.809,16.147 10.775,15.114L8.654,17.235C10.107,18.688 11.958,19.677 13.973,20.078L14.559,17.136ZM10.775,15.114C9.742,14.08 9.038,12.764 8.753,11.33L5.811,11.916C6.212,13.931 7.201,15.782 8.654,17.235L10.775,15.114ZM8.753,11.33C8.468,9.897 8.614,8.411 9.174,7.061L6.402,5.913C5.616,7.812 5.41,9.9 5.811,11.916L8.753,11.33ZM9.174,7.061C9.733,5.711 10.68,4.557 11.895,3.745L10.228,1.251C8.52,2.392 7.188,4.015 6.402,5.913L9.174,7.061ZM11.895,3.745C13.11,2.933 14.539,2.5 16,2.5L16,-0.5C13.945,-0.5 11.937,0.109 10.228,1.251L11.895,3.745ZM16,2.5C17.96,2.5 19.839,3.278 21.225,4.664L23.346,2.543C21.398,0.595 18.755,-0.5 16,-0.5L16,2.5ZM21.225,4.664C22.61,6.05 23.389,7.929 23.389,9.889L26.389,9.889C26.389,7.134 25.294,4.491 23.346,2.543L21.225,4.664ZM17.778,17.278L14.222,17.278L14.222,20.278L17.778,20.278L17.778,17.278ZM14.222,17.278C10.524,17.278 6.977,18.747 4.362,21.362L6.483,23.483C8.536,21.431 11.32,20.278 14.222,20.278L14.222,17.278ZM4.362,21.362C1.747,23.977 0.278,27.524 0.278,31.222L3.278,31.222C3.278,28.32 4.431,25.536 6.483,23.483L4.362,21.362ZM0.278,31.222C0.278,32.092 0.623,32.925 1.238,33.54L3.359,31.419C3.307,31.367 3.278,31.296 3.278,31.222L0.278,31.222ZM1.238,33.54C1.853,34.155 2.686,34.5 3.556,34.5L3.556,31.5C3.482,31.5 3.411,31.471 3.359,31.419L1.238,33.54ZM3.556,34.5L28.444,34.5L28.444,31.5L3.556,31.5L3.556,34.5ZM28.444,34.5C29.314,34.5 30.148,34.155 30.762,33.54L28.641,31.419C28.589,31.471 28.518,31.5 28.444,31.5L28.444,34.5ZM30.762,33.54C31.377,32.925 31.722,32.092 31.722,31.222L28.722,31.222C28.722,31.296 28.693,31.367 28.641,31.419L30.762,33.54ZM31.722,31.222C31.722,27.524 30.253,23.977 27.638,21.362L25.517,23.483C27.569,25.536 28.722,28.32 28.722,31.222L31.722,31.222ZM27.638,21.362C25.023,18.747 21.476,17.278 17.778,17.278L17.778,20.278C20.68,20.278 23.464,21.431 25.517,23.483L27.638,21.362Z" fill="#FFFFFF"/>
</svg>
