<svg width="40" height="40" viewBox="0 0 40 40" fill="none" xmlns="http://www.w3.org/2000/svg" xmlns:xlink="http://www.w3.org/1999/xlink">
<g opacity="0.6">
<path d="M30.625,40L9.375,40C4.206,40 0,35.794 0,30.625L0,9.375C0,4.206 4.206,0 9.375,0L30.625,0C35.794,0 40,4.206 40,9.375L40,30.625C40,35.794 35.794,40 30.625,40ZM9.375,3.125C5.929,3.125 3.125,5.929 3.125,9.375L3.125,30.625C3.125,34.071 5.929,36.875 9.375,36.875L30.625,36.875C34.071,36.875 36.875,34.071 36.875,30.625L36.875,9.375C36.875,5.929 34.071,3.125 30.625,3.125L9.375,3.125ZM31.016,7.031C29.937,7.031 29.062,7.906 29.062,8.984C29.062,10.063 29.937,10.938 31.016,10.938C32.094,10.938 32.969,10.063 32.969,8.984C32.969,7.906 32.094,7.031 31.016,7.031ZM20,30.156C14.4,30.156 9.844,25.6 9.844,20C10.402,6.526 29.6,6.53 30.156,20C30.156,25.6 25.6,30.156 20,30.156ZM20,12.969C16.123,12.969 12.969,16.123 12.969,20C13.355,29.328 26.646,29.325 27.031,20C27.031,16.123 23.877,12.969 20,12.969Z" fill="#FFFFFF"/>
</g>
</svg>
