<svg width="24" height="40" viewBox="0 0 24 40" fill="none" xmlns="http://www.w3.org/2000/svg" xmlns:xlink="http://www.w3.org/1999/xlink">
<g opacity="0.6">
<path d="M11.391,4.637C10.215,5.799 9.445,7.597 9.445,10.139L9.445,15.017C9.445,15.787 8.82,16.412 8.05,16.412L3.734,16.412L3.734,20.236L8.05,20.236C8.82,20.236 9.445,20.861 9.445,21.631L9.445,37.209L13.486,37.209L13.486,21.631C13.486,20.861 14.11,20.236 14.881,20.236L20.033,20.236L20.035,16.412L14.881,16.412C14.11,16.412 13.486,15.787 13.486,15.017L13.486,10.794C13.486,9.776 13.609,8.533 14.423,7.567C15.281,6.547 16.6,6.178 18.158,6.178L18.158,6.178L20.266,6.177L20.266,2.797L16.558,2.791L16.557,2.791C14.315,2.791 12.571,3.47 11.391,4.637ZM9.429,2.652C11.24,0.862 13.749,0 16.558,0L16.56,0L21.664,0.008C22.434,0.009 23.057,0.634 23.057,1.404L23.057,7.572C23.057,8.342 22.432,8.967 21.662,8.967L18.16,8.969C16.972,8.969 16.651,9.253 16.558,9.364C16.418,9.529 16.276,9.896 16.276,10.794L16.276,13.621L21.431,13.621C21.801,13.621 22.156,13.768 22.417,14.03C22.679,14.292 22.826,14.647 22.826,15.017L22.824,21.632C22.823,22.402 22.199,23.027 21.428,23.027L16.276,23.027L16.276,38.605C16.276,39.375 15.652,40 14.881,40L8.05,40C7.279,40 6.654,39.375 6.654,38.605L6.654,23.027L2.338,23.027C1.568,23.027 0.943,22.402 0.943,21.631L0.943,15.017C0.943,14.246 1.568,13.621 2.338,13.621L6.654,13.621L6.654,10.139C6.654,7.02 7.613,4.446 9.429,2.652Z" clip-rule="evenodd" fill-rule="evenodd" fill="#FFFFFF"/>
</g>
</svg>
