<svg width="40" height="30" viewBox="0 0 40 30" fill="none" xmlns="http://www.w3.org/2000/svg" xmlns:xlink="http://www.w3.org/1999/xlink">
<g opacity="0.6">
<path d="M33.236,28.253L6.603,28.253C3.45,28.253 0.794,25.892 0.427,22.76C-0.142,17.931 -0.142,10.069 0.427,5.239C0.794,2.107 3.449,-0.253 6.603,-0.253L33.265,-0.253C36.408,-0.253 39.062,2.098 39.44,5.218L39.654,6.989C40.097,10.649 40.117,16.605 39.699,20.265L39.415,22.741C39.056,25.883 36.4,28.253 33.236,28.253ZM6.603,2.461C4.826,2.461 3.33,3.793 3.123,5.556C2.575,10.212 2.575,17.787 3.123,22.443C3.33,24.207 4.826,25.538 6.603,25.538L33.236,25.538C35.019,25.538 36.515,24.203 36.717,22.432L37.001,19.956C37.4,16.472 37.381,10.801 36.959,7.315L36.745,5.543C36.532,3.787 35.036,2.461 33.265,2.461L6.603,2.461Z" fill="#FFFFFF"/>
<path d="M25.356,14L15.876,9.249L15.876,18.751L25.356,14Z" fill="#FFFFFF"/>
<path d="M15.877,20.109C15.629,20.109 15.382,20.041 15.164,19.906C14.763,19.659 14.519,19.222 14.519,18.751L14.519,9.249C14.519,8.778 14.763,8.341 15.164,8.094C15.565,7.846 16.064,7.824 16.485,8.036L25.965,12.787C26.424,13.016 26.714,13.485 26.714,14C26.714,14.514 26.424,14.983 25.965,15.213L16.485,19.964C16.293,20.061 16.085,20.109 15.877,20.109ZM17.234,11.448L17.234,16.552L22.327,14L17.234,11.448Z" fill="#FFFFFF"/>
</g>
</svg>
